<svg id="visual" viewBox="0 0 900 600" width="900" height="600" xmlns="http://www.w3.org/2000/svg" xmlns:xlink="http://www.w3.org/1999/xlink" version="1.1"><path d="M0 91L18.8 112C37.7 133 75.3 175 112.8 182C150.3 189 187.7 161 225.2 140C262.7 119 300.3 105 337.8 108C375.3 111 412.7 131 450.2 155C487.7 179 525.3 207 562.8 197C600.3 187 637.7 139 675.2 146C712.7 153 750.3 215 787.8 232C825.3 249 862.7 221 881.3 207L900 193L900 0L881.3 0C862.7 0 825.3 0 787.8 0C750.3 0 712.7 0 675.2 0C637.7 0 600.3 0 562.8 0C525.3 0 487.7 0 450.2 0C412.7 0 375.3 0 337.8 0C300.3 0 262.7 0 225.2 0C187.7 0 150.3 0 112.8 0C75.3 0 37.7 0 18.8 0L0 0Z" fill="#6198ff"></path><path d="M0 331L18.8 327C37.7 323 75.3 315 112.8 306C150.3 297 187.7 287 225.2 279C262.7 271 300.3 265 337.8 281C375.3 297 412.7 335 450.2 348C487.7 361 525.3 349 562.8 335C600.3 321 637.7 305 675.2 310C712.7 315 750.3 341 787.8 336C825.3 331 862.7 295 881.3 277L900 259L900 191L881.3 205C862.7 219 825.3 247 787.8 230C750.3 213 712.7 151 675.2 144C637.7 137 600.3 185 562.8 195C525.3 205 487.7 177 450.2 153C412.7 129 375.3 109 337.8 106C300.3 103 262.7 117 225.2 138C187.7 159 150.3 187 112.8 180C75.3 173 37.7 131 18.8 110L0 89Z" fill="#4385ff"></path><path d="M0 367L18.8 364C37.7 361 75.3 355 112.8 351C150.3 347 187.7 345 225.2 341C262.7 337 300.3 331 337.8 343C375.3 355 412.7 385 450.2 399C487.7 413 525.3 411 562.8 404C600.3 397 637.7 385 675.2 383C712.7 381 750.3 389 787.8 381C825.3 373 862.7 349 881.3 337L900 325L900 257L881.3 275C862.7 293 825.3 329 787.8 334C750.3 339 712.7 313 675.2 308C637.7 303 600.3 319 562.8 333C525.3 347 487.7 359 450.2 346C412.7 333 375.3 295 337.8 279C300.3 263 262.7 269 225.2 277C187.7 285 150.3 295 112.8 304C75.3 313 37.7 321 18.8 325L0 329Z" fill="#2071ff"></path><path d="M0 415L18.8 416C37.7 417 75.3 419 112.8 413C150.3 407 187.7 393 225.2 392C262.7 391 300.3 403 337.8 424C375.3 445 412.7 475 450.2 483C487.7 491 525.3 477 562.8 469C600.3 461 637.7 459 675.2 463C712.7 467 750.3 477 787.8 463C825.3 449 862.7 411 881.3 392L900 373L900 323L881.3 335C862.7 347 825.3 371 787.8 379C750.3 387 712.7 379 675.2 381C637.7 383 600.3 395 562.8 402C525.3 409 487.7 411 450.2 397C412.7 383 375.3 353 337.8 341C300.3 329 262.7 335 225.2 339C187.7 343 150.3 345 112.8 349C75.3 353 37.7 359 18.8 362L0 365Z" fill="#0061f1"></path><path d="M0 511L18.8 508C37.7 505 75.3 499 112.8 490C150.3 481 187.7 469 225.2 468C262.7 467 300.3 477 337.8 491C375.3 505 412.7 523 450.2 524C487.7 525 525.3 509 562.8 506C600.3 503 637.7 513 675.2 521C712.7 529 750.3 535 787.8 525C825.3 515 862.7 489 881.3 476L900 463L900 371L881.3 390C862.7 409 825.3 447 787.8 461C750.3 475 712.7 465 675.2 461C637.7 457 600.3 459 562.8 467C525.3 475 487.7 489 450.2 481C412.7 473 375.3 443 337.8 422C300.3 401 262.7 389 225.2 390C187.7 391 150.3 405 112.8 411C75.3 417 37.7 415 18.8 414L0 413Z" fill="#0056d6"></path><path d="M0 601L18.8 601C37.7 601 75.3 601 112.8 601C150.3 601 187.7 601 225.2 601C262.7 601 300.3 601 337.8 601C375.3 601 412.7 601 450.2 601C487.7 601 525.3 601 562.8 601C600.3 601 637.7 601 675.2 601C712.7 601 750.3 601 787.8 601C825.3 601 862.7 601 881.3 601L900 601L900 461L881.3 474C862.7 487 825.3 513 787.8 523C750.3 533 712.7 527 675.2 519C637.7 511 600.3 501 562.8 504C525.3 507 487.7 523 450.2 522C412.7 521 375.3 503 337.8 489C300.3 475 262.7 465 225.2 466C187.7 467 150.3 479 112.8 488C75.3 497 37.7 503 18.8 506L0 509Z" fill="#004cbb"></path></svg>